# xmcd CD database file
# Copyright (C) 1996 Ti Kan
#
# Track frame offsets:
# 	187
# 	11855
# 	23352
# 	33322
# 	44525
# 	56242
# 	67667
# 	78145
# 	89347
# 	100475
# 	113422
# 	124070
# 	134497
# 	144677
#
# Disc length: 2066 seconds
#
# Revision: 1
# Processed by: cddbd v1.4b41PL1 Copyright (c) Steve Scherf et al.
# Submitted via: DiscPlay 3.4.1
#
DISCID=b508100e
DTITLE=Patsy Cline - Patsy Cline Vol 3
DYEAR=1900
DGENRE=
TTITLE0=Write Me In Care Of The Blues
TTITLE1=Just Out Of Reach
TTITLE2=Turn The Cards Slowly
TTITLE3=Hidin' Out
TTITLE4=Never No More
TTITLE5=Dear God
TTITLE6=He Will Do For You
TTITLE7=You're A Stranger In My Arms
TTITLE8=Don't Ever Leave Me Again
TTITLE9=Life's A Railway To Heaven
TTITLE10=Gotta Lot Of Rhythm In My Soul
TTITLE11=Walkin' Dream
TTITLE12=Three Cigarettes In An  Ashtray
TTITLE13=Too Many Secrets
EXTD=
EXTT0=
EXTT1=
EXTT2=
EXTT3=
EXTT4=
EXTT5=
EXTT6=
EXTT7=
EXTT8=
EXTT9=
EXTT10=
EXTT11=
EXTT12=
EXTT13=
PLAYORDER=
